<svg width="601" height="438" viewBox="0 0 601 438" fill="none" xmlns="http://www.w3.org/2000/svg">
<mask id="path-1-inside-1_47_968" fill="white">
<path d="M0.861694 22.9516C0.861694 10.7439 10.758 0.847534 22.9657 0.847534H600.862V415.034C600.862 427.242 590.965 437.138 578.758 437.138H0.861694V22.9516Z"/>
</mask>
<path d="M0.861694 22.9516C0.861694 10.7439 10.758 0.847534 22.9657 0.847534H600.862V415.034C600.862 427.242 590.965 437.138 578.758 437.138H0.861694V22.9516Z" fill="#181818"/>
<path d="M-3.13831 22.9516C-3.13831 8.5347 8.54886 -3.15247 22.9657 -3.15247H604.862L596.862 4.84753H22.9657C12.9671 4.84753 4.86169 12.953 4.86169 22.9516H-3.13831ZM600.862 437.138H0.861694H600.862ZM-3.13831 437.138V22.9516C-3.13831 8.5347 8.54886 -3.15247 22.9657 -3.15247V4.84753C12.9671 4.84753 4.86169 12.953 4.86169 22.9516V437.138H-3.13831ZM604.862 -3.15247V411.034C604.862 425.451 593.174 437.138 578.758 437.138C588.756 437.138 596.862 427.242 596.862 415.034V4.84753L604.862 -3.15247Z" fill="#4D4D4D" mask="url(#path-1-inside-1_47_968)"/>
<path d="M68.0704 71.7343L68.1819 89.6695L65.2401 89.6878L65.1913 81.8428L56.7527 81.8953L56.8015 89.7403L53.8596 89.7586L53.7481 71.8234L56.69 71.8051L56.7378 79.4953L65.1763 79.4428L65.1285 71.7526L68.0704 71.7343ZM73.4514 73.5332C72.9181 73.5365 72.4697 73.3586 72.1061 72.9996C71.7426 72.6406 71.5592 72.1944 71.5559 71.6611C71.5526 71.1277 71.7304 70.6793 72.0895 70.3158C72.4485 69.9522 72.8947 69.7688 73.428 69.7655C73.9441 69.7623 74.3839 69.9402 74.7475 70.2992C75.111 70.6583 75.2944 71.1045 75.2977 71.6378C75.3011 72.1711 75.1232 72.6195 74.7642 72.9831C74.4051 73.3466 73.9675 73.53 73.4514 73.5332ZM74.9083 75.408L74.9967 89.6271L72.0548 89.6454L71.9664 75.4263L74.9083 75.408ZM82.0629 86.0476L78.9847 93.1895L77.075 93.2013L78.863 86.0675L82.0629 86.0476ZM97.2696 89.6692C96.0653 89.6767 94.9802 89.477 94.0142 89.0701C93.0481 88.646 92.2874 88.0486 91.732 87.2778C91.1767 86.507 90.8958 85.6056 90.8894 84.5733L94.0377 84.5537C94.1113 85.3275 94.4164 85.9622 94.9528 86.4578C95.5064 86.9532 96.2736 87.1979 97.2542 87.1918C98.2692 87.1855 99.0591 86.9397 99.6238 86.4545C100.188 85.9521 100.468 85.3137 100.464 84.5396C100.46 83.9374 100.276 83.4482 99.9125 83.072C99.566 82.6957 99.1255 82.4059 98.5909 82.2028C98.0735 81.9995 97.3496 81.7804 96.419 81.5453C95.2472 81.2429 94.2905 80.9392 93.5488 80.6341C92.8242 80.3117 92.2018 79.8167 91.6815 79.1489C91.1612 78.4812 90.8976 77.5882 90.8906 76.4699C90.8842 75.4377 91.1366 74.5329 91.6479 73.7555C92.1592 72.9781 92.8781 72.3801 93.8045 71.9614C94.731 71.5427 95.805 71.3296 97.0264 71.322C98.764 71.3112 100.186 71.741 101.293 72.6116C102.416 73.4648 103.043 74.6481 103.173 76.1613L99.9212 76.1815C99.8656 75.5281 99.5524 74.9709 98.9818 74.5099C98.4112 74.0489 97.6613 73.8213 96.7323 73.8271C95.8893 73.8323 95.2025 74.0517 94.6719 74.4851C94.1412 74.9185 93.8784 75.5395 93.8834 76.3481C93.8869 76.8986 94.0531 77.3535 94.3823 77.7127C94.7285 78.0547 95.1603 78.3273 95.6777 78.5305C96.1951 78.7337 96.9019 78.953 97.798 79.1883C98.9871 79.5078 99.9525 79.8287 100.694 80.151C101.453 80.4731 102.093 80.9767 102.613 81.6616C103.151 82.3293 103.423 83.2308 103.43 84.3663C103.436 85.2781 103.192 86.1398 102.698 86.9515C102.221 87.7631 101.511 88.4213 100.568 88.9261C99.6422 89.4136 98.5427 89.6613 97.2696 89.6692ZM114.198 74.9314C115.282 74.9246 116.247 75.1509 117.093 75.6102C117.956 76.0693 118.631 76.7533 119.118 77.6621C119.623 78.5708 119.879 79.6703 119.887 80.9606L119.939 89.3476L117.023 89.3657L116.974 81.4175C116.966 80.1444 116.642 79.1743 116.001 78.5073C115.36 77.8231 114.489 77.4845 113.388 77.4913C112.287 77.4982 111.412 77.8477 110.762 78.5399C110.13 79.2148 109.818 80.1888 109.826 81.4619L109.875 89.4102L106.933 89.4285L106.814 70.3321L109.756 70.3138L109.797 76.8427C110.292 76.2374 110.917 75.769 111.672 75.4374C112.444 75.1057 113.286 74.937 114.198 74.9314ZM125.089 73.212C124.555 73.2153 124.107 73.0375 123.743 72.6784C123.38 72.3194 123.196 71.8732 123.193 71.3399C123.19 70.8066 123.368 70.3581 123.727 69.9946C124.086 69.6311 124.532 69.4476 125.065 69.4443C125.581 69.4411 126.021 69.619 126.385 69.9781C126.748 70.3371 126.932 70.7833 126.935 71.3166C126.938 71.8499 126.76 72.2984 126.401 72.6619C126.042 73.0254 125.605 73.2088 125.089 73.212ZM126.545 75.0868L126.634 89.3059L123.692 89.3242L123.604 75.1051L126.545 75.0868ZM135.977 86.6155L139.93 75.0036L143.053 74.9842L137.722 89.237L134.212 89.2588L128.73 75.0733L131.879 75.0537L135.977 86.6155ZM144.34 82.0215C144.331 80.5935 144.615 79.3272 145.193 78.2225C145.789 77.1177 146.592 76.2611 147.603 75.6526C148.632 75.0269 149.765 74.7102 151.004 74.7024C152.122 74.6955 153.096 74.9131 153.924 75.3553C154.77 75.7801 155.444 76.3179 155.947 76.9685L155.934 74.904L158.902 74.8856L158.99 89.1047L156.023 89.1231L156.01 87.007C155.515 87.6811 154.839 88.2444 153.981 88.6971C153.124 89.1498 152.145 89.3795 151.044 89.3864C149.822 89.394 148.702 89.0912 147.683 88.4782C146.664 87.848 145.85 86.9756 145.241 85.8611C144.649 84.7293 144.349 83.4494 144.34 82.0215ZM155.978 82.0007C155.972 81.0201 155.761 80.1697 155.343 79.4497C154.943 78.7296 154.415 78.1824 153.759 77.808C153.103 77.4335 152.396 77.2487 151.639 77.2534C150.882 77.2581 150.178 77.4517 149.527 77.8343C148.875 78.1996 148.345 78.7449 147.937 79.47C147.545 80.1778 147.353 81.0221 147.359 82.0027C147.365 82.9833 147.568 83.8423 147.969 84.5796C148.386 85.3168 148.923 85.8812 149.579 86.2728C150.252 86.6471 150.959 86.832 151.699 86.8274C152.456 86.8227 153.16 86.6291 153.811 86.2465C154.463 85.8639 154.984 85.3102 155.375 84.5851C155.783 83.8428 155.985 82.9813 155.978 82.0007ZM179.977 74.5222C181.095 74.5153 182.095 74.7413 182.975 75.2004C183.872 75.6593 184.574 76.3431 185.078 77.2519C185.6 78.1605 185.865 79.2599 185.873 80.5502L185.925 88.9371L183.009 88.9553L182.959 81.007C182.952 79.7339 182.627 78.7639 181.987 78.0969C181.346 77.4127 180.475 77.074 179.374 77.0809C178.273 77.0877 177.397 77.4373 176.748 78.1295C176.116 78.8044 175.803 79.7784 175.811 81.0515L175.861 88.9997L172.945 89.0179L172.895 81.0696C172.887 79.7965 172.563 78.8265 171.922 78.1595C171.281 77.4753 170.41 77.1366 169.309 77.1435C168.208 77.1503 167.333 77.4999 166.684 78.1921C166.051 78.867 165.739 79.841 165.747 81.1141L165.796 89.0623L162.854 89.0806L162.766 74.8616L165.708 74.8433L165.718 76.469C166.196 75.8811 166.804 75.4214 167.542 75.0899C168.279 74.7584 169.07 74.5901 169.913 74.5848C171.048 74.5778 172.065 74.8123 172.962 75.2885C173.86 75.7646 174.553 76.4571 175.04 77.3659C175.465 76.503 176.131 75.8193 177.04 75.3147C177.949 74.7929 178.928 74.5288 179.977 74.5222Z" fill="url(#paint0_linear_47_968)"/>
<path d="M77.1168 107.319L71.8007 125.255H68.4717L64.7039 111.681L60.7039 125.255L57.4007 125.281L52.3168 107.319H55.4394L59.1555 121.926L63.1813 107.319H66.4846L70.2265 121.848L73.9684 107.319H77.1168ZM86.8981 110.803C87.9819 110.803 88.9454 111.036 89.7884 111.5C90.6486 111.965 91.3196 112.653 91.8013 113.565C92.3002 114.476 92.5497 115.577 92.5497 116.868V125.255H89.6335V117.307C89.6335 116.033 89.3153 115.061 88.6787 114.39C88.0421 113.702 87.1733 113.358 86.0723 113.358C84.9712 113.358 84.0938 113.702 83.44 114.39C82.8034 115.061 82.4852 116.033 82.4852 117.307V125.255H79.5432V106.158H82.4852V112.687C82.9841 112.085 83.612 111.621 84.369 111.294C85.1432 110.967 85.9862 110.803 86.8981 110.803ZM95.3217 118.081C95.3217 116.653 95.6141 115.388 96.1991 114.287C96.8012 113.186 97.6098 112.334 98.6249 111.732C99.6571 111.113 100.793 110.803 102.031 110.803C103.15 110.803 104.122 111.027 104.947 111.474C105.79 111.904 106.461 112.446 106.96 113.1V111.036H109.928V125.255H106.96V123.139C106.461 123.81 105.782 124.369 104.922 124.816C104.061 125.264 103.081 125.487 101.98 125.487C100.758 125.487 99.6399 125.177 98.6249 124.558C97.6098 123.922 96.8012 123.044 96.1991 121.926C95.6141 120.79 95.3217 119.509 95.3217 118.081ZM106.96 118.132C106.96 117.152 106.754 116.3 106.341 115.577C105.945 114.855 105.421 114.304 104.767 113.926C104.113 113.547 103.408 113.358 102.651 113.358C101.894 113.358 101.188 113.547 100.535 113.926C99.8808 114.287 99.3475 114.829 98.9346 115.552C98.5389 116.257 98.341 117.1 98.341 118.081C98.341 119.061 98.5389 119.922 98.9346 120.661C99.3475 121.401 99.8808 121.969 100.535 122.365C101.206 122.743 101.911 122.932 102.651 122.932C103.408 122.932 104.113 122.743 104.767 122.365C105.421 121.986 105.945 121.436 106.341 120.713C106.754 119.973 106.96 119.113 106.96 118.132ZM117.224 113.436V121.307C117.224 121.84 117.345 122.227 117.586 122.468C117.844 122.691 118.274 122.803 118.876 122.803H120.683V125.255H118.36C117.035 125.255 116.02 124.945 115.315 124.326C114.609 123.707 114.257 122.7 114.257 121.307V113.436H112.579V111.036H114.257V107.5H117.224V111.036H120.683V113.436H117.224ZM149.194 111.036L144.782 125.255H141.685L138.82 114.752L135.956 125.255H132.859L128.42 111.036H131.414L134.382 122.468L137.401 111.036H140.472L143.362 122.416L146.304 111.036H149.194ZM152.89 109.152C152.356 109.152 151.909 108.971 151.548 108.61C151.187 108.248 151.006 107.801 151.006 107.268C151.006 106.734 151.187 106.287 151.548 105.926C151.909 105.565 152.356 105.384 152.89 105.384C153.406 105.384 153.845 105.565 154.206 105.926C154.567 106.287 154.748 106.734 154.748 107.268C154.748 107.801 154.567 108.248 154.206 108.61C153.845 108.971 153.406 109.152 152.89 109.152ZM154.335 111.036V125.255H151.393V111.036H154.335ZM161.139 106.158V125.255H158.197V106.158H161.139ZM167.944 106.158V125.255H165.002V106.158H167.944ZM191.31 111.036L182.587 131.939H179.542L182.433 125.023L176.833 111.036H180.11L184.11 121.874L188.265 111.036H191.31ZM199.698 125.487C198.356 125.487 197.143 125.186 196.059 124.584C194.975 123.965 194.124 123.104 193.504 122.003C192.885 120.885 192.575 119.595 192.575 118.132C192.575 116.687 192.894 115.405 193.53 114.287C194.167 113.169 195.035 112.309 196.137 111.707C197.238 111.104 198.468 110.803 199.827 110.803C201.186 110.803 202.416 111.104 203.517 111.707C204.618 112.309 205.487 113.169 206.124 114.287C206.76 115.405 207.079 116.687 207.079 118.132C207.079 119.577 206.752 120.859 206.098 121.977C205.444 123.096 204.549 123.965 203.414 124.584C202.296 125.186 201.057 125.487 199.698 125.487ZM199.698 122.932C200.455 122.932 201.16 122.752 201.814 122.39C202.485 122.029 203.027 121.487 203.44 120.765C203.853 120.042 204.059 119.165 204.059 118.132C204.059 117.1 203.861 116.231 203.466 115.526C203.07 114.803 202.545 114.261 201.891 113.9C201.238 113.539 200.532 113.358 199.775 113.358C199.018 113.358 198.313 113.539 197.659 113.9C197.023 114.261 196.515 114.803 196.137 115.526C195.758 116.231 195.569 117.1 195.569 118.132C195.569 119.664 195.956 120.851 196.73 121.694C197.522 122.519 198.511 122.932 199.698 122.932ZM222.864 111.036V125.255H219.922V123.577C219.458 124.162 218.847 124.627 218.09 124.971C217.35 125.298 216.559 125.461 215.716 125.461C214.598 125.461 213.591 125.229 212.696 124.765C211.819 124.3 211.122 123.612 210.606 122.7C210.107 121.788 209.858 120.687 209.858 119.397V111.036H212.774V118.958C212.774 120.231 213.092 121.212 213.729 121.9C214.365 122.571 215.234 122.907 216.335 122.907C217.436 122.907 218.305 122.571 218.942 121.9C219.595 121.212 219.922 120.231 219.922 118.958V111.036H222.864ZM236.391 113.152C236.89 112.464 237.57 111.904 238.43 111.474C239.308 111.027 240.28 110.803 241.346 110.803C242.602 110.803 243.738 111.104 244.753 111.707C245.768 112.309 246.568 113.169 247.153 114.287C247.738 115.388 248.03 116.653 248.03 118.081C248.03 119.509 247.738 120.79 247.153 121.926C246.568 123.044 245.759 123.922 244.727 124.558C243.712 125.177 242.585 125.487 241.346 125.487C240.245 125.487 239.265 125.272 238.404 124.842C237.561 124.412 236.89 123.861 236.391 123.19V125.255H233.449V106.158H236.391V113.152ZM245.037 118.081C245.037 117.1 244.83 116.257 244.417 115.552C244.022 114.829 243.488 114.287 242.817 113.926C242.163 113.547 241.458 113.358 240.701 113.358C239.961 113.358 239.256 113.547 238.585 113.926C237.931 114.304 237.398 114.855 236.985 115.577C236.589 116.3 236.391 117.152 236.391 118.132C236.391 119.113 236.589 119.973 236.985 120.713C237.398 121.436 237.931 121.986 238.585 122.365C239.256 122.743 239.961 122.932 240.701 122.932C241.458 122.932 242.163 122.743 242.817 122.365C243.488 121.969 244.022 121.401 244.417 120.661C244.83 119.922 245.037 119.061 245.037 118.081ZM263.817 111.036V125.255H260.875V123.577C260.41 124.162 259.8 124.627 259.043 124.971C258.303 125.298 257.511 125.461 256.668 125.461C255.55 125.461 254.544 125.229 253.649 124.765C252.772 124.3 252.075 123.612 251.559 122.7C251.06 121.788 250.81 120.687 250.81 119.397V111.036H253.726V118.958C253.726 120.231 254.045 121.212 254.681 121.9C255.318 122.571 256.187 122.907 257.288 122.907C258.389 122.907 259.258 122.571 259.894 121.9C260.548 121.212 260.875 120.231 260.875 118.958V111.036H263.817ZM269.195 109.152C268.662 109.152 268.215 108.971 267.853 108.61C267.492 108.248 267.311 107.801 267.311 107.268C267.311 106.734 267.492 106.287 267.853 105.926C268.215 105.565 268.662 105.384 269.195 105.384C269.711 105.384 270.15 105.565 270.511 105.926C270.873 106.287 271.053 106.734 271.053 107.268C271.053 107.801 270.873 108.248 270.511 108.61C270.15 108.971 269.711 109.152 269.195 109.152ZM270.64 111.036V125.255H267.698V111.036H270.64ZM277.445 106.158V125.255H274.503V106.158H277.445ZM280.327 118.081C280.327 116.653 280.619 115.388 281.204 114.287C281.806 113.186 282.615 112.334 283.63 111.732C284.662 111.113 285.806 110.803 287.062 110.803C287.991 110.803 288.903 111.01 289.798 111.423C290.709 111.818 291.432 112.352 291.965 113.023V106.158H294.933V125.255H291.965V123.113C291.484 123.801 290.813 124.369 289.952 124.816C289.109 125.264 288.137 125.487 287.036 125.487C285.798 125.487 284.662 125.177 283.63 124.558C282.615 123.922 281.806 123.044 281.204 121.926C280.619 120.79 280.327 119.509 280.327 118.081ZM291.965 118.132C291.965 117.152 291.759 116.3 291.346 115.577C290.95 114.855 290.426 114.304 289.772 113.926C289.118 113.547 288.413 113.358 287.656 113.358C286.899 113.358 286.193 113.547 285.54 113.926C284.886 114.287 284.352 114.829 283.94 115.552C283.544 116.257 283.346 117.1 283.346 118.081C283.346 119.061 283.544 119.922 283.94 120.661C284.352 121.401 284.886 121.969 285.54 122.365C286.211 122.743 286.916 122.932 287.656 122.932C288.413 122.932 289.118 122.743 289.772 122.365C290.426 121.986 290.95 121.436 291.346 120.713C291.759 119.973 291.965 119.113 291.965 118.132ZM308.933 113.436V121.307C308.933 121.84 309.054 122.227 309.294 122.468C309.552 122.691 309.983 122.803 310.585 122.803H312.391V125.255H310.069C308.744 125.255 307.729 124.945 307.023 124.326C306.318 123.707 305.965 122.7 305.965 121.307V113.436H304.288V111.036H305.965V107.5H308.933V111.036H312.391V113.436H308.933ZM321.27 125.487C319.928 125.487 318.716 125.186 317.632 124.584C316.548 123.965 315.696 123.104 315.077 122.003C314.457 120.885 314.148 119.595 314.148 118.132C314.148 116.687 314.466 115.405 315.103 114.287C315.739 113.169 316.608 112.309 317.709 111.707C318.81 111.104 320.04 110.803 321.399 110.803C322.759 110.803 323.989 111.104 325.09 111.707C326.191 112.309 327.06 113.169 327.696 114.287C328.333 115.405 328.651 116.687 328.651 118.132C328.651 119.577 328.324 120.859 327.67 121.977C327.017 123.096 326.122 123.965 324.987 124.584C323.868 125.186 322.63 125.487 321.27 125.487ZM321.27 122.932C322.027 122.932 322.733 122.752 323.387 122.39C324.057 122.029 324.599 121.487 325.012 120.765C325.425 120.042 325.632 119.165 325.632 118.132C325.632 117.1 325.434 116.231 325.038 115.526C324.642 114.803 324.118 114.261 323.464 113.9C322.81 113.539 322.105 113.358 321.348 113.358C320.591 113.358 319.885 113.539 319.232 113.9C318.595 114.261 318.088 114.803 317.709 115.526C317.331 116.231 317.141 117.1 317.141 118.132C317.141 119.664 317.528 120.851 318.303 121.694C319.094 122.519 320.083 122.932 321.27 122.932ZM330.579 118.081C330.579 116.653 330.871 115.388 331.456 114.287C332.058 113.186 332.867 112.334 333.882 111.732C334.914 111.113 336.058 110.803 337.314 110.803C338.243 110.803 339.155 111.01 340.05 111.423C340.961 111.818 341.684 112.352 342.217 113.023V106.158H345.185V125.255H342.217V123.113C341.736 123.801 341.065 124.369 340.204 124.816C339.361 125.264 338.389 125.487 337.288 125.487C336.05 125.487 334.914 125.177 333.882 124.558C332.867 123.922 332.058 123.044 331.456 121.926C330.871 120.79 330.579 119.509 330.579 118.081ZM342.217 118.132C342.217 117.152 342.011 116.3 341.598 115.577C341.202 114.855 340.678 114.304 340.024 113.926C339.37 113.547 338.665 113.358 337.908 113.358C337.151 113.358 336.445 113.547 335.792 113.926C335.138 114.287 334.604 114.829 334.192 115.552C333.796 116.257 333.598 117.1 333.598 118.081C333.598 119.061 333.796 119.922 334.192 120.661C334.604 121.401 335.138 121.969 335.792 122.365C336.463 122.743 337.168 122.932 337.908 122.932C338.665 122.932 339.37 122.743 340.024 122.365C340.678 121.986 341.202 121.436 341.598 120.713C342.011 119.973 342.217 119.113 342.217 118.132ZM348.069 118.081C348.069 116.653 348.361 115.388 348.946 114.287C349.548 113.186 350.357 112.334 351.372 111.732C352.404 111.113 353.54 110.803 354.778 110.803C355.897 110.803 356.869 111.027 357.694 111.474C358.537 111.904 359.208 112.446 359.707 113.1V111.036H362.675V125.255H359.707V123.139C359.208 123.81 358.529 124.369 357.669 124.816C356.808 125.264 355.828 125.487 354.727 125.487C353.505 125.487 352.387 125.177 351.372 124.558C350.357 123.922 349.548 123.044 348.946 121.926C348.361 120.79 348.069 119.509 348.069 118.081ZM359.707 118.132C359.707 117.152 359.501 116.3 359.088 115.577C358.692 114.855 358.168 114.304 357.514 113.926C356.86 113.547 356.155 113.358 355.398 113.358C354.641 113.358 353.935 113.547 353.282 113.926C352.628 114.287 352.094 114.829 351.682 115.552C351.286 116.257 351.088 117.1 351.088 118.081C351.088 119.061 351.286 119.922 351.682 120.661C352.094 121.401 352.628 121.969 353.282 122.365C353.952 122.743 354.658 122.932 355.398 122.932C356.155 122.932 356.86 122.743 357.514 122.365C358.168 121.986 358.692 121.436 359.088 120.713C359.501 119.973 359.707 119.113 359.707 118.132ZM379.339 111.036L370.617 131.939H367.571L370.462 125.023L364.862 111.036H368.139L372.139 121.874L376.294 111.036H379.339ZM386.385 107.061C388.14 107.061 389.542 107.543 390.592 108.507C391.658 109.47 392.192 110.786 392.192 112.455C392.192 114.193 391.641 115.5 390.54 116.377C389.439 117.255 387.977 117.694 386.153 117.694L386.05 119.732H383.495L383.366 115.681H384.217C385.886 115.681 387.159 115.457 388.037 115.01C388.931 114.562 389.379 113.711 389.379 112.455C389.379 111.543 389.112 110.829 388.579 110.313C388.063 109.797 387.34 109.539 386.411 109.539C385.482 109.539 384.751 109.788 384.217 110.287C383.684 110.786 383.417 111.483 383.417 112.377H380.656C380.656 111.345 380.888 110.425 381.353 109.616C381.817 108.808 382.48 108.18 383.34 107.732C384.217 107.285 385.232 107.061 386.385 107.061ZM384.734 125.436C384.2 125.436 383.753 125.255 383.392 124.894C383.03 124.532 382.85 124.085 382.85 123.552C382.85 123.018 383.03 122.571 383.392 122.21C383.753 121.848 384.2 121.668 384.734 121.668C385.25 121.668 385.688 121.848 386.05 122.21C386.411 122.571 386.592 123.018 386.592 123.552C386.592 124.085 386.411 124.532 386.05 124.894C385.688 125.255 385.25 125.436 384.734 125.436Z" fill="url(#paint1_linear_47_968)"/>
<rect x="51.6682" y="149.255" width="498.387" height="170.968" rx="12.9032" fill="#303031"/>
<path d="M81.9311 175.611V185.699H80.2762V178.79L77.1988 185.699H76.052L72.9601 178.79V185.699H71.3053V175.611H73.0907L76.6327 183.522L80.1601 175.611H81.9311ZM83.5545 181.664C83.5545 180.861 83.719 180.149 84.048 179.53C84.3868 178.911 84.8416 178.432 85.4126 178.093C85.9932 177.744 86.6319 177.57 87.3287 177.57C87.9577 177.57 88.5045 177.696 88.969 177.948C89.4432 178.19 89.8206 178.494 90.1013 178.862V177.701H91.7706V185.699H90.1013V184.509C89.8206 184.886 89.4384 185.201 88.9545 185.452C88.4706 185.704 87.919 185.83 87.2997 185.83C86.6126 185.83 85.9835 185.656 85.4126 185.307C84.8416 184.949 84.3868 184.456 84.048 183.827C83.719 183.188 83.5545 182.467 83.5545 181.664ZM90.1013 181.693C90.1013 181.141 89.9851 180.662 89.7529 180.256C89.5303 179.849 89.2351 179.54 88.8674 179.327C88.4997 179.114 88.1029 179.007 87.6771 179.007C87.2513 179.007 86.8545 179.114 86.4868 179.327C86.119 179.53 85.819 179.835 85.5868 180.241C85.3642 180.638 85.2529 181.112 85.2529 181.664C85.2529 182.215 85.3642 182.699 85.5868 183.115C85.819 183.532 86.119 183.851 86.4868 184.073C86.8642 184.286 87.2609 184.393 87.6771 184.393C88.1029 184.393 88.4997 184.286 88.8674 184.073C89.2351 183.861 89.5303 183.551 89.7529 183.144C89.9851 182.728 90.1013 182.244 90.1013 181.693ZM97.1087 181.707L100.796 185.699H98.5603L95.599 182.259V185.699H93.9442V174.957H95.599V181.199L98.5023 177.701H100.796L97.1087 181.707ZM109.313 181.504C109.313 181.804 109.293 182.075 109.255 182.317H103.143C103.192 182.956 103.429 183.469 103.855 183.856C104.28 184.243 104.803 184.436 105.422 184.436C106.313 184.436 106.942 184.064 107.309 183.319H109.095C108.853 184.054 108.413 184.659 107.774 185.133C107.145 185.598 106.361 185.83 105.422 185.83C104.658 185.83 103.971 185.661 103.361 185.322C102.761 184.973 102.287 184.49 101.938 183.87C101.6 183.241 101.43 182.515 101.43 181.693C101.43 180.87 101.595 180.149 101.924 179.53C102.263 178.901 102.732 178.417 103.332 178.078C103.942 177.74 104.638 177.57 105.422 177.57C106.177 177.57 106.85 177.735 107.44 178.064C108.03 178.393 108.49 178.857 108.819 179.457C109.148 180.048 109.313 180.73 109.313 181.504ZM107.585 180.982C107.575 180.372 107.358 179.883 106.932 179.515C106.506 179.148 105.979 178.964 105.35 178.964C104.779 178.964 104.29 179.148 103.884 179.515C103.477 179.873 103.235 180.362 103.158 180.982H107.585ZM114.16 181.664C114.16 180.861 114.325 180.149 114.654 179.53C114.993 178.911 115.447 178.432 116.018 178.093C116.599 177.744 117.238 177.57 117.934 177.57C118.564 177.57 119.11 177.696 119.575 177.948C120.049 178.19 120.426 178.494 120.707 178.862V177.701H122.376V185.699H120.707V184.509C120.426 184.886 120.044 185.201 119.56 185.452C119.076 185.704 118.525 185.83 117.905 185.83C117.218 185.83 116.589 185.656 116.018 185.307C115.447 184.949 114.993 184.456 114.654 183.827C114.325 183.188 114.16 182.467 114.16 181.664ZM120.707 181.693C120.707 181.141 120.591 180.662 120.359 180.256C120.136 179.849 119.841 179.54 119.473 179.327C119.105 179.114 118.709 179.007 118.283 179.007C117.857 179.007 117.46 179.114 117.093 179.327C116.725 179.53 116.425 179.835 116.193 180.241C115.97 180.638 115.859 181.112 115.859 181.664C115.859 182.215 115.97 182.699 116.193 183.115C116.425 183.532 116.725 183.851 117.093 184.073C117.47 184.286 117.867 184.393 118.283 184.393C118.709 184.393 119.105 184.286 119.473 184.073C119.841 183.861 120.136 183.551 120.359 183.144C120.591 182.728 120.707 182.244 120.707 181.693ZM128.585 177.57C129.214 177.57 129.776 177.701 130.269 177.962C130.773 178.223 131.164 178.611 131.445 179.123C131.726 179.636 131.866 180.256 131.866 180.982V185.699H130.226V181.228C130.226 180.512 130.047 179.965 129.689 179.588C129.331 179.201 128.842 179.007 128.223 179.007C127.603 179.007 127.11 179.201 126.742 179.588C126.384 179.965 126.205 180.512 126.205 181.228V185.699H124.55V177.701H126.205V178.615C126.476 178.286 126.819 178.03 127.235 177.846C127.661 177.662 128.111 177.57 128.585 177.57ZM145.078 181.504C145.078 181.804 145.059 182.075 145.02 182.317H138.909C138.957 182.956 139.195 183.469 139.62 183.856C140.046 184.243 140.569 184.436 141.188 184.436C142.078 184.436 142.707 184.064 143.075 183.319H144.861C144.619 184.054 144.178 184.659 143.54 185.133C142.911 185.598 142.127 185.83 141.188 185.83C140.424 185.83 139.736 185.661 139.127 185.322C138.527 184.973 138.053 184.49 137.704 183.87C137.365 183.241 137.196 182.515 137.196 181.693C137.196 180.87 137.361 180.149 137.69 179.53C138.028 178.901 138.498 178.417 139.098 178.078C139.707 177.74 140.404 177.57 141.188 177.57C141.943 177.57 142.615 177.735 143.206 178.064C143.796 178.393 144.256 178.857 144.585 179.457C144.914 180.048 145.078 180.73 145.078 181.504ZM143.351 180.982C143.341 180.372 143.124 179.883 142.698 179.515C142.272 179.148 141.745 178.964 141.115 178.964C140.545 178.964 140.056 179.148 139.649 179.515C139.243 179.873 139.001 180.362 138.924 180.982H143.351ZM152.847 179.748V181.141H146.881V179.748H152.847ZM154.647 181.693C154.647 180.87 154.811 180.149 155.14 179.53C155.479 178.901 155.943 178.417 156.534 178.078C157.124 177.74 157.802 177.57 158.566 177.57C159.534 177.57 160.332 177.802 160.961 178.267C161.6 178.722 162.031 179.375 162.253 180.227H160.468C160.322 179.83 160.09 179.52 159.771 179.298C159.452 179.075 159.05 178.964 158.566 178.964C157.889 178.964 157.347 179.206 156.94 179.69C156.543 180.164 156.345 180.832 156.345 181.693C156.345 182.554 156.543 183.227 156.94 183.711C157.347 184.194 157.889 184.436 158.566 184.436C159.524 184.436 160.158 184.015 160.468 183.173H162.253C162.021 183.986 161.585 184.635 160.947 185.119C160.308 185.593 159.514 185.83 158.566 185.83C157.802 185.83 157.124 185.661 156.534 185.322C155.943 184.973 155.479 184.49 155.14 183.87C154.811 183.241 154.647 182.515 154.647 181.693ZM167.372 185.83C166.617 185.83 165.935 185.661 165.325 185.322C164.715 184.973 164.236 184.49 163.888 183.87C163.539 183.241 163.365 182.515 163.365 181.693C163.365 180.88 163.544 180.159 163.902 179.53C164.26 178.901 164.749 178.417 165.368 178.078C165.988 177.74 166.68 177.57 167.444 177.57C168.209 177.57 168.901 177.74 169.52 178.078C170.139 178.417 170.628 178.901 170.986 179.53C171.344 180.159 171.523 180.88 171.523 181.693C171.523 182.506 171.339 183.227 170.972 183.856C170.604 184.485 170.101 184.973 169.462 185.322C168.833 185.661 168.136 185.83 167.372 185.83ZM167.372 184.393C167.797 184.393 168.194 184.291 168.562 184.088C168.939 183.885 169.244 183.58 169.476 183.173C169.709 182.767 169.825 182.273 169.825 181.693C169.825 181.112 169.714 180.623 169.491 180.227C169.268 179.82 168.973 179.515 168.606 179.312C168.238 179.109 167.841 179.007 167.415 179.007C166.989 179.007 166.593 179.109 166.225 179.312C165.867 179.515 165.581 179.82 165.368 180.227C165.156 180.623 165.049 181.112 165.049 181.693C165.049 182.554 165.267 183.222 165.702 183.696C166.147 184.161 166.704 184.393 167.372 184.393ZM182.841 177.57C183.47 177.57 184.032 177.701 184.525 177.962C185.029 178.223 185.42 178.611 185.701 179.123C185.991 179.636 186.137 180.256 186.137 180.982V185.699H184.496V181.228C184.496 180.512 184.317 179.965 183.959 179.588C183.601 179.201 183.112 179.007 182.493 179.007C181.874 179.007 181.38 179.201 181.012 179.588C180.654 179.965 180.475 180.512 180.475 181.228V185.699H178.835V181.228C178.835 180.512 178.656 179.965 178.298 179.588C177.94 179.201 177.451 179.007 176.832 179.007C176.212 179.007 175.719 179.201 175.351 179.588C174.993 179.965 174.814 180.512 174.814 181.228V185.699H173.159V177.701H174.814V178.615C175.085 178.286 175.429 178.03 175.845 177.846C176.261 177.662 176.706 177.57 177.18 177.57C177.819 177.57 178.39 177.706 178.893 177.977C179.396 178.248 179.783 178.64 180.054 179.152C180.296 178.669 180.674 178.286 181.187 178.006C181.699 177.715 182.251 177.57 182.841 177.57ZM197.925 177.57C198.554 177.57 199.115 177.701 199.608 177.962C200.112 178.223 200.504 178.611 200.784 179.123C201.075 179.636 201.22 180.256 201.22 180.982V185.699H199.579V181.228C199.579 180.512 199.4 179.965 199.042 179.588C198.684 179.201 198.196 179.007 197.576 179.007C196.957 179.007 196.463 179.201 196.096 179.588C195.737 179.965 195.558 180.512 195.558 181.228V185.699H193.918V181.228C193.918 180.512 193.739 179.965 193.381 179.588C193.023 179.201 192.534 179.007 191.915 179.007C191.296 179.007 190.802 179.201 190.434 179.588C190.076 179.965 189.897 180.512 189.897 181.228V185.699H188.242V177.701H189.897V178.615C190.168 178.286 190.512 178.03 190.928 177.846C191.344 177.662 191.789 177.57 192.263 177.57C192.902 177.57 193.473 177.706 193.976 177.977C194.479 178.248 194.867 178.64 195.137 179.152C195.379 178.669 195.757 178.286 196.27 178.006C196.783 177.715 197.334 177.57 197.925 177.57ZM210.656 181.504C210.656 181.804 210.637 182.075 210.598 182.317H204.487C204.535 182.956 204.772 183.469 205.198 183.856C205.624 184.243 206.146 184.436 206.766 184.436C207.656 184.436 208.285 184.064 208.653 183.319H210.438C210.196 184.054 209.756 184.659 209.117 185.133C208.488 185.598 207.705 185.83 206.766 185.83C206.001 185.83 205.314 185.661 204.705 185.322C204.105 184.973 203.63 184.49 203.282 183.87C202.943 183.241 202.774 182.515 202.774 181.693C202.774 180.87 202.938 180.149 203.267 179.53C203.606 178.901 204.075 178.417 204.675 178.078C205.285 177.74 205.982 177.57 206.766 177.57C207.521 177.57 208.193 177.735 208.784 178.064C209.374 178.393 209.834 178.857 210.163 179.457C210.492 180.048 210.656 180.73 210.656 181.504ZM208.929 180.982C208.919 180.372 208.701 179.883 208.275 179.515C207.85 179.148 207.322 178.964 206.693 178.964C206.122 178.964 205.634 179.148 205.227 179.515C204.821 179.873 204.579 180.362 204.501 180.982H208.929ZM213.94 178.862C214.181 178.456 214.501 178.141 214.898 177.919C215.304 177.686 215.783 177.57 216.335 177.57V179.283H215.914C215.265 179.283 214.772 179.448 214.433 179.777C214.104 180.106 213.94 180.677 213.94 181.49V185.699H212.285V177.701H213.94V178.862ZM217.304 181.693C217.304 180.87 217.469 180.149 217.798 179.53C218.136 178.901 218.601 178.417 219.191 178.078C219.782 177.74 220.459 177.57 221.224 177.57C222.191 177.57 222.99 177.802 223.619 178.267C224.257 178.722 224.688 179.375 224.911 180.227H223.125C222.98 179.83 222.748 179.52 222.428 179.298C222.109 179.075 221.707 178.964 221.224 178.964C220.546 178.964 220.004 179.206 219.598 179.69C219.201 180.164 219.003 180.832 219.003 181.693C219.003 182.554 219.201 183.227 219.598 183.711C220.004 184.194 220.546 184.436 221.224 184.436C222.182 184.436 222.815 184.015 223.125 183.173H224.911C224.678 183.986 224.243 184.635 223.604 185.119C222.965 185.593 222.172 185.83 221.224 185.83C220.459 185.83 219.782 185.661 219.191 185.322C218.601 184.973 218.136 184.49 217.798 183.87C217.469 183.241 217.304 182.515 217.304 181.693ZM233.89 181.504C233.89 181.804 233.871 182.075 233.832 182.317H227.721C227.769 182.956 228.007 183.469 228.432 183.856C228.858 184.243 229.381 184.436 230 184.436C230.89 184.436 231.519 184.064 231.887 183.319H233.673C233.431 184.054 232.99 184.659 232.352 185.133C231.723 185.598 230.939 185.83 230 185.83C229.236 185.83 228.549 185.661 227.939 185.322C227.339 184.973 226.865 184.49 226.516 183.87C226.178 183.241 226.008 182.515 226.008 181.693C226.008 180.87 226.173 180.149 226.502 179.53C226.84 178.901 227.31 178.417 227.91 178.078C228.519 177.74 229.216 177.57 230 177.57C230.755 177.57 231.428 177.735 232.018 178.064C232.608 178.393 233.068 178.857 233.397 179.457C233.726 180.048 233.89 180.73 233.89 181.504ZM232.163 180.982C232.153 180.372 231.936 179.883 231.51 179.515C231.084 179.148 230.557 178.964 229.928 178.964C229.357 178.964 228.868 179.148 228.461 179.515C228.055 179.873 227.813 180.362 227.736 180.982H232.163ZM242.193 185.83C241.564 185.83 240.998 185.719 240.495 185.496C240.001 185.264 239.609 184.954 239.319 184.567C239.028 184.17 238.874 183.73 238.854 183.246H240.567C240.596 183.585 240.756 183.87 241.046 184.102C241.346 184.325 241.719 184.436 242.164 184.436C242.628 184.436 242.987 184.349 243.238 184.175C243.499 183.991 243.63 183.759 243.63 183.478C243.63 183.178 243.485 182.956 243.195 182.811C242.914 182.665 242.464 182.506 241.845 182.332C241.245 182.167 240.756 182.007 240.378 181.852C240.001 181.698 239.672 181.461 239.391 181.141C239.12 180.822 238.985 180.401 238.985 179.878C238.985 179.452 239.111 179.065 239.362 178.717C239.614 178.359 239.972 178.078 240.437 177.875C240.911 177.672 241.453 177.57 242.062 177.57C242.972 177.57 243.703 177.802 244.254 178.267C244.816 178.722 245.116 179.346 245.154 180.14H243.499C243.47 179.782 243.325 179.496 243.064 179.283C242.803 179.07 242.449 178.964 242.004 178.964C241.569 178.964 241.235 179.046 241.003 179.211C240.77 179.375 240.654 179.593 240.654 179.864C240.654 180.077 240.732 180.256 240.887 180.401C241.041 180.546 241.23 180.662 241.453 180.749C241.675 180.827 242.004 180.928 242.44 181.054C243.02 181.209 243.495 181.369 243.862 181.533C244.24 181.688 244.564 181.92 244.835 182.23C245.106 182.54 245.246 182.951 245.256 183.464C245.256 183.919 245.13 184.325 244.878 184.683C244.627 185.041 244.269 185.322 243.804 185.525C243.349 185.728 242.812 185.83 242.193 185.83ZM248.975 179.051V183.478C248.975 183.778 249.042 183.996 249.178 184.132C249.323 184.257 249.565 184.32 249.904 184.32H250.92V185.699H249.613C248.868 185.699 248.297 185.525 247.9 185.177C247.504 184.828 247.305 184.262 247.305 183.478V179.051H246.362V177.701H247.305V175.712H248.975V177.701H250.92V179.051H248.975ZM255.914 185.83C255.16 185.83 254.477 185.661 253.868 185.322C253.258 184.973 252.779 184.49 252.43 183.87C252.082 183.241 251.908 182.515 251.908 181.693C251.908 180.88 252.087 180.159 252.445 179.53C252.803 178.901 253.292 178.417 253.911 178.078C254.53 177.74 255.222 177.57 255.987 177.57C256.751 177.57 257.443 177.74 258.063 178.078C258.682 178.417 259.171 178.901 259.529 179.53C259.887 180.159 260.066 180.88 260.066 181.693C260.066 182.506 259.882 183.227 259.514 183.856C259.147 184.485 258.643 184.973 258.005 185.322C257.376 185.661 256.679 185.83 255.914 185.83ZM255.914 184.393C256.34 184.393 256.737 184.291 257.105 184.088C257.482 183.885 257.787 183.58 258.019 183.173C258.251 182.767 258.368 182.273 258.368 181.693C258.368 181.112 258.256 180.623 258.034 180.227C257.811 179.82 257.516 179.515 257.148 179.312C256.78 179.109 256.384 179.007 255.958 179.007C255.532 179.007 255.135 179.109 254.768 179.312C254.41 179.515 254.124 179.82 253.911 180.227C253.698 180.623 253.592 181.112 253.592 181.693C253.592 182.554 253.81 183.222 254.245 183.696C254.69 184.161 255.247 184.393 255.914 184.393ZM263.357 178.862C263.599 178.456 263.918 178.141 264.315 177.919C264.721 177.686 265.2 177.57 265.752 177.57V179.283H265.331C264.683 179.283 264.189 179.448 263.85 179.777C263.521 180.106 263.357 180.677 263.357 181.49V185.699H261.702V177.701H263.357V178.862ZM274.604 181.504C274.604 181.804 274.584 182.075 274.546 182.317H268.434C268.483 182.956 268.72 183.469 269.146 183.856C269.571 184.243 270.094 184.436 270.713 184.436C271.604 184.436 272.233 184.064 272.6 183.319H274.386C274.144 184.054 273.704 184.659 273.065 185.133C272.436 185.598 271.652 185.83 270.713 185.83C269.949 185.83 269.262 185.661 268.652 185.322C268.052 184.973 267.578 184.49 267.229 183.87C266.891 183.241 266.721 182.515 266.721 181.693C266.721 180.87 266.886 180.149 267.215 179.53C267.554 178.901 268.023 178.417 268.623 178.078C269.233 177.74 269.929 177.57 270.713 177.57C271.468 177.57 272.141 177.735 272.731 178.064C273.321 178.393 273.781 178.857 274.11 179.457C274.439 180.048 274.604 180.73 274.604 181.504ZM272.876 180.982C272.867 180.372 272.649 179.883 272.223 179.515C271.797 179.148 271.27 178.964 270.641 178.964C270.07 178.964 269.581 179.148 269.175 179.515C268.768 179.873 268.526 180.362 268.449 180.982H272.876ZM283.356 179.051H281.876V185.699H280.206V179.051H279.263V177.701H280.206V177.135C280.206 176.215 280.448 175.548 280.932 175.132C281.426 174.706 282.195 174.493 283.24 174.493V175.872C282.737 175.872 282.384 175.969 282.18 176.162C281.977 176.346 281.876 176.67 281.876 177.135V177.701H283.356V179.051ZM288.292 185.83C287.537 185.83 286.855 185.661 286.245 185.322C285.636 184.973 285.157 184.49 284.808 183.87C284.46 183.241 284.286 182.515 284.286 181.693C284.286 180.88 284.465 180.159 284.823 179.53C285.181 178.901 285.67 178.417 286.289 178.078C286.908 177.74 287.6 177.57 288.365 177.57C289.129 177.57 289.821 177.74 290.441 178.078C291.06 178.417 291.549 178.901 291.907 179.53C292.265 180.159 292.444 180.88 292.444 181.693C292.444 182.506 292.26 183.227 291.892 183.856C291.524 184.485 291.021 184.973 290.382 185.322C289.753 185.661 289.057 185.83 288.292 185.83ZM288.292 184.393C288.718 184.393 289.115 184.291 289.482 184.088C289.86 183.885 290.165 183.58 290.397 183.173C290.629 182.767 290.745 182.273 290.745 181.693C290.745 181.112 290.634 180.623 290.411 180.227C290.189 179.82 289.894 179.515 289.526 179.312C289.158 179.109 288.761 179.007 288.336 179.007C287.91 179.007 287.513 179.109 287.145 179.312C286.787 179.515 286.502 179.82 286.289 180.227C286.076 180.623 285.97 181.112 285.97 181.693C285.97 182.554 286.187 183.222 286.623 183.696C287.068 184.161 287.624 184.393 288.292 184.393ZM295.734 178.862C295.976 178.456 296.296 178.141 296.693 177.919C297.099 177.686 297.578 177.57 298.13 177.57V179.283H297.709C297.06 179.283 296.567 179.448 296.228 179.777C295.899 180.106 295.734 180.677 295.734 181.49V185.699H294.08V177.701H295.734V178.862ZM306.325 185.83C305.696 185.83 305.13 185.719 304.626 185.496C304.133 185.264 303.741 184.954 303.451 184.567C303.16 184.17 303.005 183.73 302.986 183.246H304.699C304.728 183.585 304.888 183.87 305.178 184.102C305.478 184.325 305.851 184.436 306.296 184.436C306.76 184.436 307.118 184.349 307.37 184.175C307.631 183.991 307.762 183.759 307.762 183.478C307.762 183.178 307.617 182.956 307.326 182.811C307.046 182.665 306.596 182.506 305.976 182.332C305.376 182.167 304.888 182.007 304.51 181.852C304.133 181.698 303.804 181.461 303.523 181.141C303.252 180.822 303.117 180.401 303.117 179.878C303.117 179.452 303.243 179.065 303.494 178.717C303.746 178.359 304.104 178.078 304.568 177.875C305.043 177.672 305.584 177.57 306.194 177.57C307.104 177.57 307.834 177.802 308.386 178.267C308.947 178.722 309.247 179.346 309.286 180.14H307.631C307.602 179.782 307.457 179.496 307.196 179.283C306.934 179.07 306.581 178.964 306.136 178.964C305.701 178.964 305.367 179.046 305.134 179.211C304.902 179.375 304.786 179.593 304.786 179.864C304.786 180.077 304.864 180.256 305.018 180.401C305.173 180.546 305.362 180.662 305.584 180.749C305.807 180.827 306.136 180.928 306.572 181.054C307.152 181.209 307.626 181.369 307.994 181.533C308.372 181.688 308.696 181.92 308.967 182.23C309.238 182.54 309.378 182.951 309.388 183.464C309.388 183.919 309.262 184.325 309.01 184.683C308.759 185.041 308.401 185.322 307.936 185.525C307.481 185.728 306.944 185.83 306.325 185.83ZM315.211 177.57C315.84 177.57 316.402 177.701 316.895 177.962C317.398 178.223 317.79 178.611 318.071 179.123C318.352 179.636 318.492 180.256 318.492 180.982V185.699H316.852V181.228C316.852 180.512 316.673 179.965 316.315 179.588C315.956 179.201 315.468 179.007 314.848 179.007C314.229 179.007 313.735 179.201 313.368 179.588C313.01 179.965 312.831 180.512 312.831 181.228V185.699H311.176V177.701H312.831V178.615C313.102 178.286 313.445 178.03 313.861 177.846C314.287 177.662 314.737 177.57 315.211 177.57ZM327.933 181.504C327.933 181.804 327.914 182.075 327.875 182.317H321.764C321.812 182.956 322.05 183.469 322.475 183.856C322.901 184.243 323.424 184.436 324.043 184.436C324.933 184.436 325.562 184.064 325.93 183.319H327.716C327.474 184.054 327.033 184.659 326.395 185.133C325.766 185.598 324.982 185.83 324.043 185.83C323.279 185.83 322.591 185.661 321.982 185.322C321.382 184.973 320.908 184.49 320.559 183.87C320.221 183.241 320.051 182.515 320.051 181.693C320.051 180.87 320.216 180.149 320.545 179.53C320.883 178.901 321.353 178.417 321.953 178.078C322.562 177.74 323.259 177.57 324.043 177.57C324.798 177.57 325.471 177.735 326.061 178.064C326.651 178.393 327.111 178.857 327.44 179.457C327.769 180.048 327.933 180.73 327.933 181.504ZM326.206 180.982C326.196 180.372 325.979 179.883 325.553 179.515C325.127 179.148 324.6 178.964 323.971 178.964C323.4 178.964 322.911 179.148 322.504 179.515C322.098 179.873 321.856 180.362 321.779 180.982H326.206ZM329.01 181.664C329.01 180.861 329.175 180.149 329.504 179.53C329.843 178.911 330.297 178.432 330.868 178.093C331.449 177.744 332.088 177.57 332.785 177.57C333.414 177.57 333.96 177.696 334.425 177.948C334.899 178.19 335.276 178.494 335.557 178.862V177.701H337.226V185.699H335.557V184.509C335.276 184.886 334.894 185.201 334.41 185.452C333.926 185.704 333.375 185.83 332.755 185.83C332.068 185.83 331.439 185.656 330.868 185.307C330.297 184.949 329.843 184.456 329.504 183.827C329.175 183.188 329.01 182.467 329.01 181.664ZM335.557 181.693C335.557 181.141 335.441 180.662 335.209 180.256C334.986 179.849 334.691 179.54 334.323 179.327C333.955 179.114 333.559 179.007 333.133 179.007C332.707 179.007 332.31 179.114 331.943 179.327C331.575 179.53 331.275 179.835 331.043 180.241C330.82 180.638 330.709 181.112 330.709 181.664C330.709 182.215 330.82 182.699 331.043 183.115C331.275 183.532 331.575 183.851 331.943 184.073C332.32 184.286 332.717 184.393 333.133 184.393C333.559 184.393 333.955 184.286 334.323 184.073C334.691 183.861 334.986 183.551 335.209 183.144C335.441 182.728 335.557 182.244 335.557 181.693ZM342.565 181.707L346.252 185.699H344.016L341.055 182.259V185.699H339.4V174.957H341.055V181.199L343.958 177.701H346.252L342.565 181.707ZM354.768 181.504C354.768 181.804 354.749 182.075 354.71 182.317H348.599C348.647 182.956 348.885 183.469 349.31 183.856C349.736 184.243 350.259 184.436 350.878 184.436C351.768 184.436 352.397 184.064 352.765 183.319H354.551C354.309 184.054 353.868 184.659 353.23 185.133C352.601 185.598 351.817 185.83 350.878 185.83C350.114 185.83 349.426 185.661 348.817 185.322C348.217 184.973 347.743 184.49 347.394 183.87C347.055 183.241 346.886 182.515 346.886 181.693C346.886 180.87 347.051 180.149 347.38 179.53C347.718 178.901 348.188 178.417 348.788 178.078C349.397 177.74 350.094 177.57 350.878 177.57C351.633 177.57 352.305 177.735 352.896 178.064C353.486 178.393 353.946 178.857 354.275 179.457C354.604 180.048 354.768 180.73 354.768 181.504ZM353.041 180.982C353.031 180.372 352.814 179.883 352.388 179.515C351.962 179.148 351.435 178.964 350.805 178.964C350.235 178.964 349.746 179.148 349.339 179.515C348.933 179.873 348.691 180.362 348.614 180.982H353.041ZM358.052 178.862C358.294 178.456 358.613 178.141 359.01 177.919C359.416 177.686 359.895 177.57 360.447 177.57V179.283H360.026C359.378 179.283 358.884 179.448 358.545 179.777C358.216 180.106 358.052 180.677 358.052 181.49V185.699H356.397V177.701H358.052V178.862ZM364.871 185.83C364.242 185.83 363.676 185.719 363.173 185.496C362.679 185.264 362.287 184.954 361.997 184.567C361.707 184.17 361.552 183.73 361.533 183.246H363.245C363.275 183.585 363.434 183.87 363.725 184.102C364.025 184.325 364.397 184.436 364.842 184.436C365.307 184.436 365.665 184.349 365.916 184.175C366.178 183.991 366.308 183.759 366.308 183.478C366.308 183.178 366.163 182.956 365.873 182.811C365.592 182.665 365.142 182.506 364.523 182.332C363.923 182.167 363.434 182.007 363.057 181.852C362.679 181.698 362.35 181.461 362.07 181.141C361.799 180.822 361.663 180.401 361.663 179.878C361.663 179.452 361.789 179.065 362.041 178.717C362.292 178.359 362.65 178.078 363.115 177.875C363.589 177.672 364.131 177.57 364.741 177.57C365.65 177.57 366.381 177.802 366.933 178.267C367.494 178.722 367.794 179.346 367.833 180.14H366.178C366.149 179.782 366.004 179.496 365.742 179.283C365.481 179.07 365.128 178.964 364.683 178.964C364.247 178.964 363.913 179.046 363.681 179.211C363.449 179.375 363.333 179.593 363.333 179.864C363.333 180.077 363.41 180.256 363.565 180.401C363.72 180.546 363.908 180.662 364.131 180.749C364.354 180.827 364.683 180.928 365.118 181.054C365.699 181.209 366.173 181.369 366.541 181.533C366.918 181.688 367.242 181.92 367.513 182.23C367.784 182.54 367.925 182.951 367.934 183.464C367.934 183.919 367.808 184.325 367.557 184.683C367.305 185.041 366.947 185.322 366.483 185.525C366.028 185.728 365.491 185.83 364.871 185.83Z" fill="white"/>
<rect x="144.41" y="272.746" width="80.1613" height="29.6774" rx="14.8387" fill="#202020"/>
<rect x="144.813" y="273.149" width="79.3548" height="28.871" rx="14.4355" stroke="#A3A3A3" stroke-opacity="0.25" stroke-width="0.806452"/>
<path d="M160.71 286.075C160.71 286.474 160.616 286.85 160.428 287.204C160.24 287.558 159.939 287.847 159.525 288.073C159.111 288.291 158.58 288.401 157.933 288.401H156.51V291.584H155.223V283.738H157.933C158.535 283.738 159.043 283.843 159.457 284.054C159.879 284.257 160.191 284.535 160.394 284.889C160.605 285.243 160.71 285.638 160.71 286.075ZM157.933 287.351C158.422 287.351 158.787 287.241 159.028 287.023C159.269 286.797 159.389 286.481 159.389 286.075C159.389 285.217 158.904 284.788 157.933 284.788H156.51V287.351H157.933ZM167.572 285.363V291.584H166.285V290.851C166.081 291.106 165.814 291.31 165.483 291.46C165.159 291.603 164.813 291.675 164.444 291.675C163.955 291.675 163.515 291.573 163.123 291.37C162.74 291.167 162.435 290.866 162.209 290.467C161.991 290.068 161.881 289.586 161.881 289.021V285.363H163.157V288.83C163.157 289.387 163.297 289.816 163.575 290.117C163.854 290.41 164.234 290.557 164.715 290.557C165.197 290.557 165.577 290.41 165.856 290.117C166.142 289.816 166.285 289.387 166.285 288.83V285.363H167.572ZM170.557 286.289C170.775 285.988 171.073 285.744 171.449 285.555C171.833 285.36 172.258 285.262 172.725 285.262C173.274 285.262 173.771 285.394 174.215 285.657C174.659 285.92 175.009 286.297 175.265 286.786C175.521 287.268 175.649 287.821 175.649 288.446C175.649 289.07 175.521 289.631 175.265 290.128C175.009 290.617 174.656 291.001 174.204 291.28C173.76 291.551 173.267 291.686 172.725 291.686C172.243 291.686 171.814 291.592 171.438 291.404C171.069 291.216 170.775 290.975 170.557 290.681V291.584H169.27V283.23H170.557V286.289ZM174.339 288.446C174.339 288.017 174.249 287.648 174.068 287.339C173.895 287.023 173.662 286.786 173.368 286.628C173.082 286.462 172.774 286.38 172.443 286.38C172.119 286.38 171.81 286.462 171.517 286.628C171.231 286.794 170.997 287.034 170.817 287.351C170.644 287.667 170.557 288.039 170.557 288.468C170.557 288.897 170.644 289.274 170.817 289.597C170.997 289.913 171.231 290.154 171.517 290.32C171.81 290.485 172.119 290.568 172.443 290.568C172.774 290.568 173.082 290.485 173.368 290.32C173.662 290.147 173.895 289.898 174.068 289.575C174.249 289.251 174.339 288.875 174.339 288.446ZM178.209 283.23V291.584H176.922V283.23H178.209ZM180.554 284.539C180.32 284.539 180.125 284.46 179.967 284.302C179.808 284.144 179.729 283.948 179.729 283.715C179.729 283.482 179.808 283.286 179.967 283.128C180.125 282.97 180.32 282.891 180.554 282.891C180.779 282.891 180.971 282.97 181.129 283.128C181.288 283.286 181.367 283.482 181.367 283.715C181.367 283.948 181.288 284.144 181.129 284.302C180.971 284.46 180.779 284.539 180.554 284.539ZM181.186 285.363V291.584H179.899V285.363H181.186ZM182.447 288.468C182.447 287.828 182.575 287.268 182.831 286.786C183.094 286.297 183.455 285.92 183.914 285.657C184.374 285.394 184.9 285.262 185.495 285.262C186.248 285.262 186.869 285.442 187.358 285.804C187.855 286.158 188.19 286.666 188.363 287.328H186.974C186.861 287.019 186.681 286.778 186.432 286.605C186.184 286.432 185.871 286.346 185.495 286.346C184.968 286.346 184.547 286.534 184.231 286.91C183.922 287.279 183.768 287.798 183.768 288.468C183.768 289.138 183.922 289.661 184.231 290.038C184.547 290.414 184.968 290.602 185.495 290.602C186.24 290.602 186.733 290.275 186.974 289.62H188.363C188.182 290.252 187.844 290.756 187.347 291.133C186.85 291.502 186.233 291.686 185.495 291.686C184.9 291.686 184.374 291.554 183.914 291.291C183.455 291.02 183.094 290.644 182.831 290.162C182.575 289.673 182.447 289.108 182.447 288.468Z" fill="white"/>
<path d="M208.442 281.133H201.991C200.28 281.133 198.639 281.813 197.429 283.022C196.219 284.232 195.539 285.873 195.539 287.584C195.539 289.295 196.219 290.936 197.429 292.146C198.639 293.356 200.28 294.036 201.991 294.036H208.442C210.153 294.036 211.794 293.356 213.004 292.146C214.214 290.936 214.894 289.295 214.894 287.584C214.894 285.873 214.214 284.232 213.004 283.022C211.794 281.813 210.153 281.133 208.442 281.133Z" stroke="white" stroke-width="0.967742" stroke-linecap="round" stroke-linejoin="round"/>
<path d="M208.846 290.81C210.627 290.81 212.071 289.366 212.071 287.584C212.071 285.803 210.627 284.359 208.846 284.359C207.064 284.359 205.62 285.803 205.62 287.584C205.62 289.366 207.064 290.81 208.846 290.81Z" fill="url(#paint2_linear_47_968)"/>
<rect x="70.2166" y="272.746" width="29.0323" height="29.0323" rx="14.5161" fill="#202020"/>
<rect x="69.8133" y="272.342" width="29.8387" height="29.8387" rx="14.9194" stroke="#A3A3A3" stroke-opacity="0.25" stroke-width="0.806452"/>
<path d="M79.0876 287.262H90.378M84.7328 281.617V292.907" stroke="white" stroke-width="1.88172" stroke-linecap="round" stroke-linejoin="round"/>
<rect x="107.313" y="272.746" width="29.0323" height="29.0323" rx="14.5161" fill="#202020"/>
<rect x="106.91" y="272.342" width="29.8387" height="29.8387" rx="14.9194" stroke="#A3A3A3" stroke-opacity="0.25" stroke-width="0.806452"/>
<g clip-path="url(#clip0_47_968)">
<path d="M126.534 285.918V287.262C126.534 289.86 124.428 291.966 121.829 291.966M121.829 291.966C119.231 291.966 117.125 289.86 117.125 287.262V285.918M121.829 291.966V293.982M119.141 293.982H124.518M121.829 289.278C120.716 289.278 119.813 288.375 119.813 287.262V282.558C119.813 281.444 120.716 280.541 121.829 280.541C122.943 280.541 123.846 281.444 123.846 282.558V287.262C123.846 288.375 122.943 289.278 121.829 289.278Z" stroke="white" stroke-width="1.34409" stroke-linecap="round" stroke-linejoin="round"/>
</g>
<rect x="489.571" y="272.746" width="41.9355" height="29.0323" rx="14.5161" fill="url(#paint3_linear_47_968)"/>
<rect x="489.975" y="273.149" width="41.129" height="28.2258" rx="14.1129" stroke="#A3A3A3" stroke-opacity="0.25" stroke-width="0.806452"/>
<g clip-path="url(#clip1_47_968)">
<path d="M510.539 280.81V293.713M510.539 280.81L505.163 286.187M510.539 280.81L515.915 286.187" stroke="white" stroke-width="2.15054" stroke-linecap="round" stroke-linejoin="round"/>
</g>
<rect x="51.6682" y="336.352" width="174.968" height="39.3548" rx="19.6774" fill="#202020"/>
<rect x="52.0714" y="336.755" width="174.161" height="38.5484" rx="19.2742" stroke="#A3A3A3" stroke-opacity="0.25" stroke-width="0.806452"/>
<g clip-path="url(#clip2_47_968)">
<path d="M78.2811 347.965H66.9908C65.6546 347.965 64.5714 349.048 64.5714 350.384V361.674C64.5714 363.01 65.6546 364.094 66.9908 364.094H78.2811C79.6173 364.094 80.7004 363.01 80.7004 361.674V350.384C80.7004 349.048 79.6173 347.965 78.2811 347.965Z" fill="#F7DF1E"/>
<path d="M74.778 359.62C75.093 360.156 75.5341 360.534 76.2586 360.534C76.8886 360.534 77.2982 360.219 77.2982 359.778C77.2982 359.274 76.8886 359.085 76.1956 358.77L75.8176 358.612C74.715 358.14 73.9905 357.573 73.9905 356.344C73.9905 355.21 74.841 354.328 76.1956 354.328C77.1722 354.328 77.8652 354.675 78.3377 355.557L77.1722 356.313C76.9201 355.84 76.6366 355.651 76.1956 355.651C75.7546 355.651 75.4711 355.935 75.4711 356.313C75.4711 356.754 75.7546 356.943 76.4161 357.226L76.7941 357.384C78.0857 357.951 78.8103 358.486 78.8103 359.778C78.8103 361.132 77.7392 361.889 76.2901 361.889C74.8725 361.889 73.959 361.227 73.5179 360.345L74.778 359.62ZM69.4227 359.746C69.6747 360.156 69.8637 360.534 70.3992 360.534C70.9033 360.534 71.2183 360.345 71.2183 359.589V354.36H72.7304V359.526C72.7304 361.101 71.8168 361.794 70.4622 361.794C69.2337 361.794 68.5406 361.164 68.1941 360.408L69.4227 359.746Z" fill="black"/>
</g>
<path d="M92.6885 352.182V357.839C92.6885 358.539 92.474 359.092 92.045 359.498C91.6235 359.905 91.0665 360.108 90.374 360.108C89.6815 360.108 89.1208 359.905 88.6917 359.498C88.2702 359.092 88.0595 358.539 88.0595 357.839H89.3579C89.3654 358.185 89.452 358.46 89.6175 358.663C89.7907 358.866 90.0428 358.968 90.374 358.968C90.7052 358.968 90.9573 358.866 91.1304 358.663C91.3036 358.452 91.3901 358.178 91.3901 357.839V352.182H92.6885ZM94.3533 356.89C94.3533 356.266 94.4813 355.712 94.7372 355.231C95.0006 354.749 95.3544 354.376 95.7985 354.113C96.2501 353.842 96.7469 353.707 97.2888 353.707C97.778 353.707 98.2033 353.804 98.5646 354C98.9334 354.188 99.227 354.425 99.4452 354.711V353.808H100.744V360.029H99.4452V359.103C99.227 359.397 98.9296 359.641 98.5533 359.837C98.177 360.033 97.7479 360.131 97.2662 360.131C96.7318 360.131 96.2426 359.995 95.7985 359.724C95.3544 359.446 95.0006 359.062 94.7372 358.573C94.4813 358.076 94.3533 357.515 94.3533 356.89ZM99.4452 356.913C99.4452 356.484 99.3549 356.111 99.1743 355.795C99.0012 355.479 98.7716 355.238 98.4856 355.073C98.1995 354.907 97.8909 354.824 97.5598 354.824C97.2286 354.824 96.92 354.907 96.6339 355.073C96.3479 355.231 96.1146 355.468 95.9339 355.784C95.7608 356.093 95.6743 356.461 95.6743 356.89C95.6743 357.319 95.7608 357.696 95.9339 358.019C96.1146 358.343 96.3479 358.591 96.6339 358.765C96.9275 358.93 97.2361 359.013 97.5598 359.013C97.8909 359.013 98.1995 358.93 98.4856 358.765C98.7716 358.599 99.0012 358.358 99.1743 358.042C99.3549 357.718 99.4452 357.342 99.4452 356.913ZM104.839 358.878L106.6 353.808H107.966L105.595 360.029H104.06L101.7 353.808H103.078L104.839 358.878ZM108.51 356.89C108.51 356.266 108.638 355.712 108.894 355.231C109.158 354.749 109.511 354.376 109.955 354.113C110.407 353.842 110.904 353.707 111.446 353.707C111.935 353.707 112.36 353.804 112.722 354C113.09 354.188 113.384 354.425 113.602 354.711V353.808H114.901V360.029H113.602V359.103C113.384 359.397 113.087 359.641 112.71 359.837C112.334 360.033 111.905 360.131 111.423 360.131C110.889 360.131 110.4 359.995 109.955 359.724C109.511 359.446 109.158 359.062 108.894 358.573C108.638 358.076 108.51 357.515 108.51 356.89ZM113.602 356.913C113.602 356.484 113.512 356.111 113.331 355.795C113.158 355.479 112.929 355.238 112.643 355.073C112.357 354.907 112.048 354.824 111.717 354.824C111.386 354.824 111.077 354.907 110.791 355.073C110.505 355.231 110.272 355.468 110.091 355.784C109.918 356.093 109.831 356.461 109.831 356.89C109.831 357.319 109.918 357.696 110.091 358.019C110.272 358.343 110.505 358.591 110.791 358.765C111.085 358.93 111.393 359.013 111.717 359.013C112.048 359.013 112.357 358.93 112.643 358.765C112.929 358.599 113.158 358.358 113.331 358.042C113.512 357.718 113.602 357.342 113.602 356.913ZM119.177 360.108C118.65 360.108 118.176 360.018 117.754 359.837C117.333 359.649 117.001 359.386 116.761 359.047C116.52 358.708 116.399 358.313 116.399 357.861H117.777C117.807 358.2 117.938 358.479 118.172 358.697C118.413 358.915 118.748 359.024 119.177 359.024C119.621 359.024 119.967 358.919 120.215 358.708C120.464 358.49 120.588 358.211 120.588 357.873C120.588 357.609 120.509 357.395 120.351 357.229C120.2 357.064 120.008 356.936 119.775 356.845C119.549 356.755 119.233 356.657 118.827 356.552C118.315 356.416 117.897 356.281 117.573 356.145C117.257 356.002 116.986 355.784 116.761 355.49C116.535 355.197 116.422 354.805 116.422 354.316C116.422 353.865 116.535 353.469 116.761 353.131C116.986 352.792 117.302 352.532 117.709 352.352C118.115 352.171 118.586 352.081 119.12 352.081C119.88 352.081 120.501 352.273 120.983 352.657C121.472 353.033 121.743 353.552 121.796 354.215H120.373C120.351 353.929 120.215 353.684 119.967 353.481C119.719 353.278 119.391 353.176 118.985 353.176C118.616 353.176 118.315 353.27 118.082 353.458C117.848 353.646 117.732 353.917 117.732 354.271C117.732 354.512 117.803 354.711 117.946 354.869C118.097 355.02 118.285 355.14 118.511 355.231C118.736 355.321 119.045 355.419 119.436 355.524C119.956 355.667 120.377 355.81 120.701 355.953C121.032 356.096 121.311 356.318 121.536 356.619C121.77 356.913 121.886 357.308 121.886 357.805C121.886 358.204 121.777 358.58 121.559 358.934C121.348 359.288 121.036 359.574 120.622 359.792C120.215 360.003 119.734 360.108 119.177 360.108ZM122.976 356.913C122.976 356.273 123.104 355.712 123.36 355.231C123.623 354.741 123.985 354.365 124.444 354.102C124.903 353.838 125.43 353.707 126.024 353.707C126.777 353.707 127.398 353.887 127.887 354.248C128.384 354.602 128.719 355.11 128.892 355.773H127.503C127.391 355.464 127.21 355.223 126.962 355.05C126.713 354.877 126.401 354.79 126.024 354.79C125.498 354.79 125.076 354.979 124.76 355.355C124.451 355.724 124.297 356.243 124.297 356.913C124.297 357.583 124.451 358.106 124.76 358.482C125.076 358.859 125.498 359.047 126.024 359.047C126.77 359.047 127.263 358.719 127.503 358.065H128.892C128.712 358.697 128.373 359.201 127.876 359.578C127.379 359.946 126.762 360.131 126.024 360.131C125.43 360.131 124.903 359.999 124.444 359.736C123.985 359.465 123.623 359.088 123.36 358.607C123.104 358.117 122.976 357.553 122.976 356.913ZM131.462 354.711C131.65 354.395 131.899 354.151 132.207 353.978C132.523 353.797 132.896 353.707 133.325 353.707V355.039H132.997C132.493 355.039 132.109 355.167 131.846 355.423C131.59 355.679 131.462 356.123 131.462 356.755V360.029H130.175V353.808H131.462V354.711ZM135.163 352.984C134.929 352.984 134.734 352.905 134.576 352.747C134.418 352.589 134.339 352.393 134.339 352.16C134.339 351.926 134.418 351.731 134.576 351.573C134.734 351.415 134.929 351.336 135.163 351.336C135.389 351.336 135.581 351.415 135.739 351.573C135.897 351.731 135.976 351.926 135.976 352.16C135.976 352.393 135.897 352.589 135.739 352.747C135.581 352.905 135.389 352.984 135.163 352.984ZM135.795 353.808V360.029H134.508V353.808H135.795ZM138.772 354.723C138.99 354.437 139.288 354.196 139.664 354C140.04 353.804 140.466 353.707 140.94 353.707C141.482 353.707 141.975 353.842 142.419 354.113C142.87 354.376 143.224 354.749 143.48 355.231C143.736 355.712 143.864 356.266 143.864 356.89C143.864 357.515 143.736 358.076 143.48 358.573C143.224 359.062 142.87 359.446 142.419 359.724C141.975 359.995 141.482 360.131 140.94 360.131C140.466 360.131 140.044 360.037 139.675 359.848C139.306 359.653 139.005 359.412 138.772 359.126V362.987H137.485V353.808H138.772V354.723ZM142.554 356.89C142.554 356.461 142.464 356.093 142.283 355.784C142.11 355.468 141.877 355.231 141.583 355.073C141.297 354.907 140.989 354.824 140.657 354.824C140.334 354.824 140.025 354.907 139.732 355.073C139.446 355.238 139.212 355.479 139.032 355.795C138.859 356.111 138.772 356.484 138.772 356.913C138.772 357.342 138.859 357.718 139.032 358.042C139.212 358.358 139.446 358.599 139.732 358.765C140.025 358.93 140.334 359.013 140.657 359.013C140.989 359.013 141.297 358.93 141.583 358.765C141.877 358.591 142.11 358.343 142.283 358.019C142.464 357.696 142.554 357.319 142.554 356.89ZM146.638 354.858V358.302C146.638 358.535 146.691 358.704 146.796 358.81C146.909 358.908 147.097 358.957 147.361 358.957H148.151V360.029H147.135C146.556 360.029 146.111 359.894 145.803 359.623C145.494 359.352 145.34 358.911 145.34 358.302V354.858H144.606V353.808H145.34V352.261H146.638V353.808H148.151V354.858H146.638ZM153.896 361.305H152.609V350.986H153.896V361.305ZM162.94 360.029L161.133 356.89H160.151V360.029H158.864V352.182H161.573C162.176 352.182 162.684 352.288 163.098 352.498C163.519 352.709 163.831 352.991 164.035 353.345C164.245 353.699 164.351 354.094 164.351 354.531C164.351 355.043 164.2 355.509 163.899 355.931C163.606 356.345 163.15 356.627 162.533 356.778L164.475 360.029H162.94ZM160.151 355.863H161.573C162.055 355.863 162.416 355.743 162.657 355.502C162.906 355.261 163.03 354.937 163.03 354.531C163.03 354.124 162.909 353.808 162.669 353.582C162.428 353.349 162.063 353.232 161.573 353.232H160.151V355.863ZM171.699 356.766C171.699 357 171.684 357.21 171.654 357.398H166.901C166.938 357.895 167.123 358.294 167.454 358.595C167.785 358.896 168.191 359.047 168.673 359.047C169.366 359.047 169.855 358.757 170.141 358.178H171.53C171.341 358.75 170.999 359.22 170.502 359.589C170.013 359.95 169.403 360.131 168.673 360.131C168.079 360.131 167.544 359.999 167.07 359.736C166.603 359.465 166.234 359.088 165.963 358.607C165.7 358.117 165.568 357.553 165.568 356.913C165.568 356.273 165.696 355.712 165.952 355.231C166.216 354.741 166.581 354.365 167.047 354.102C167.522 353.838 168.063 353.707 168.673 353.707C169.26 353.707 169.783 353.835 170.243 354.09C170.702 354.346 171.059 354.708 171.315 355.174C171.571 355.633 171.699 356.164 171.699 356.766ZM170.355 356.36C170.348 355.886 170.179 355.505 169.847 355.219C169.516 354.933 169.106 354.79 168.617 354.79C168.173 354.79 167.793 354.933 167.476 355.219C167.16 355.498 166.972 355.878 166.912 356.36H170.355ZM172.537 356.89C172.537 356.266 172.665 355.712 172.92 355.231C173.184 354.749 173.538 354.376 173.982 354.113C174.433 353.842 174.93 353.707 175.472 353.707C175.961 353.707 176.387 353.804 176.748 354C177.117 354.188 177.41 354.425 177.629 354.711V353.808H178.927V360.029H177.629V359.103C177.41 359.397 177.113 359.641 176.737 359.837C176.36 360.033 175.931 360.131 175.449 360.131C174.915 360.131 174.426 359.995 173.982 359.724C173.538 359.446 173.184 359.062 172.92 358.573C172.665 358.076 172.537 357.515 172.537 356.89ZM177.629 356.913C177.629 356.484 177.538 356.111 177.358 355.795C177.184 355.479 176.955 355.238 176.669 355.073C176.383 354.907 176.074 354.824 175.743 354.824C175.412 354.824 175.103 354.907 174.817 355.073C174.531 355.231 174.298 355.468 174.117 355.784C173.944 356.093 173.858 356.461 173.858 356.89C173.858 357.319 173.944 357.696 174.117 358.019C174.298 358.343 174.531 358.591 174.817 358.765C175.111 358.93 175.419 359.013 175.743 359.013C176.074 359.013 176.383 358.93 176.669 358.765C176.955 358.599 177.184 358.358 177.358 358.042C177.538 357.718 177.629 357.342 177.629 356.913ZM180.188 356.913C180.188 356.273 180.316 355.712 180.572 355.231C180.836 354.741 181.197 354.365 181.656 354.102C182.115 353.838 182.642 353.707 183.237 353.707C183.989 353.707 184.61 353.887 185.1 354.248C185.596 354.602 185.931 355.11 186.105 355.773H184.716C184.603 355.464 184.422 355.223 184.174 355.05C183.926 354.877 183.613 354.79 183.237 354.79C182.71 354.79 182.288 354.979 181.972 355.355C181.664 355.724 181.509 356.243 181.509 356.913C181.509 357.583 181.664 358.106 181.972 358.482C182.288 358.859 182.71 359.047 183.237 359.047C183.982 359.047 184.475 358.719 184.716 358.065H186.105C185.924 358.697 185.585 359.201 185.088 359.578C184.592 359.946 183.974 360.131 183.237 360.131C182.642 360.131 182.115 359.999 181.656 359.736C181.197 359.465 180.836 359.088 180.572 358.607C180.316 358.117 180.188 357.553 180.188 356.913ZM188.889 354.858V358.302C188.889 358.535 188.942 358.704 189.047 358.81C189.16 358.908 189.348 358.957 189.611 358.957H190.402V360.029H189.386C188.806 360.029 188.362 359.894 188.053 359.623C187.745 359.352 187.59 358.911 187.59 358.302V354.858H186.857V353.808H187.59V352.261H188.889V353.808H190.402V354.858H188.889Z" fill="white"/>
<path d="M208.167 354.416H203.17C202.564 354.416 202.225 355.024 202.599 355.439L205.097 358.207C205.388 358.528 205.948 358.528 206.239 358.207L208.738 355.438C209.112 355.024 208.772 354.416 208.167 354.416Z" fill="white"/>
<rect x="238.765" y="336.352" width="38.7097" height="38.7097" rx="19.3548" fill="#202020"/>
<rect x="238.227" y="335.814" width="39.7849" height="39.7849" rx="19.8925" stroke="#A3A3A3" stroke-opacity="0.25" stroke-width="1.07527"/>
<path d="M260.237 360.646H256.003V363.469H260.237V360.646Z" stroke="#757F9A" stroke-width="1.41129" stroke-miterlimit="10"/>
<path d="M263.765 352.884C263.765 349.567 260.872 346.886 257.485 347.309C254.945 347.592 252.898 349.638 252.546 352.178C252.263 354.225 253.11 356.059 254.521 357.259C255.509 358.106 256.074 359.305 256.074 360.505V360.646H260.308V360.505C260.308 359.235 260.943 358.035 261.931 357.118C262.989 356.059 263.765 354.577 263.765 352.884Z" stroke="#757F9A" stroke-width="1.41129" stroke-miterlimit="10"/>
<path d="M265.882 353.59H267.999" stroke="#757F9A" stroke-width="1.41129" stroke-miterlimit="10"/>
<path d="M248.241 353.59H250.358" stroke="#757F9A" stroke-width="1.41129" stroke-miterlimit="10"/>
<path d="M263.624 359.094L265.105 360.576" stroke="#757F9A" stroke-width="1.41129" stroke-miterlimit="10"/>
<path d="M251.134 346.604L252.616 348.086" stroke="#757F9A" stroke-width="1.41129" stroke-miterlimit="10"/>
<path d="M252.616 359.094L251.134 360.576" stroke="#757F9A" stroke-width="1.41129" stroke-miterlimit="10"/>
<path d="M265.105 346.604L263.624 348.086" stroke="#757F9A" stroke-width="1.41129" stroke-miterlimit="10"/>
<path d="M259.531 363.469C259.531 364.245 258.896 364.88 258.12 364.88C257.344 364.88 256.709 364.245 256.709 363.469H259.531Z" fill="#757F9A"/>
<defs>
<linearGradient id="paint0_linear_47_968" x1="57.4512" y1="66.1996" x2="186.39" y2="84.3267" gradientUnits="userSpaceOnUse">
<stop stop-color="white"/>
<stop offset="1" stop-color="#ABABAB"/>
</linearGradient>
<linearGradient id="paint1_linear_47_968" x1="51.6682" y1="116.255" x2="386.347" y2="116.255" gradientUnits="userSpaceOnUse">
<stop stop-color="#2FCACE"/>
<stop offset="1" stop-color="#48AEF3" stop-opacity="0.75"/>
</linearGradient>
<linearGradient id="paint2_linear_47_968" x1="208.846" y1="284.359" x2="208.846" y2="290.81" gradientUnits="userSpaceOnUse">
<stop stop-color="#48AFF2"/>
<stop offset="1" stop-color="#52C0A9"/>
</linearGradient>
<linearGradient id="paint3_linear_47_968" x1="489.571" y1="287.262" x2="531.507" y2="287.262" gradientUnits="userSpaceOnUse">
<stop stop-color="#00C4C9"/>
<stop offset="1" stop-color="#007BCE"/>
</linearGradient>
<clipPath id="clip0_47_968">
<rect width="16.129" height="16.129" fill="white" transform="translate(113.765 279.197)"/>
</clipPath>
<clipPath id="clip1_47_968">
<rect width="16.129" height="16.129" fill="white" transform="translate(502.474 279.197)"/>
</clipPath>
<clipPath id="clip2_47_968">
<rect width="16.129" height="16.129" fill="white" transform="translate(64.5714 347.965)"/>
</clipPath>
</defs>
</svg>
