<svg width="258" height="118" viewBox="0 0 258 118" fill="none" xmlns="http://www.w3.org/2000/svg">
<path d="M233.076 77.6018V89.8518H193.26V28.1481H207.267V77.537C207.332 77.537 233.076 77.537 233.076 77.6018ZM49.1057 89.8518C63.4369 89.8518 75.4984 80.0648 78.9353 66.7778L113.823 94L148.711 66.7778V89.8518H188.462V77.6018H162.653V28.1481H148.646V51.2222L115.185 77.3426L107.727 71.5093L123.809 59L141.253 45.3889L131.332 37.6111L97.8706 63.7315L90.4132 57.8981L123.809 31.7778L113.888 24L79.0001 51.2222C75.5633 37.9352 63.5017 28.1481 49.1706 28.1481H24.1396V89.787C24.1396 89.787 49.1057 89.787 49.1057 89.8518ZM38.1466 77.6018V40.463H49.1706C58.4437 40.463 65.9659 48.7593 65.9659 59C65.9659 69.2407 58.4437 77.6018 49.1057 77.6018H38.1466Z" fill="#333333"/>
</svg>
