<svg xmlns="http://www.w3.org/2000/svg" viewBox="330 180 390 310" fill="none">
  <path d="M395.6 213.867C388.8 216.4 380.4 222.267 377.2 226.8C361.867 248.4 368.267 275.6 391.333 287.733C396.8 290.533 399.867 291.2 408.667 291.2C417.733 291.333 420.4 290.8 426 287.733C429.733 285.867 434.933 281.867 437.6 279.067C442.533 274 447.867 264 448 259.6C448 257.733 449.2 257.333 454.667 257.333C474.4 257.333 493.333 274 499.333 296.667C500.4 300.933 501.733 304.8 502.133 305.2C503.467 306.4 501.2 286.8 499.067 278.667C492.8 254 472.533 234.267 451.733 232.267C444.667 231.733 443.6 231.2 439.467 226.133C432.533 217.6 422.8 212.933 410.667 212.4C404.267 212.133 398.8 212.667 395.6 213.867ZM417.333 234.933C430 241.467 431.6 256.4 420.667 266.667C417.6 269.467 415.867 270 408.667 270C401.467 270 399.733 269.467 396.667 266.667C389.067 259.6 387.333 251.067 391.733 242.667C394.267 237.867 403.467 232 408.667 232C410.133 232 414.133 233.333 417.333 234.933Z" fill="#09090b" />
  <path d="M599.867 214.533C581.867 221.6 565.467 239.733 553.333 266C547.867 277.733 539.067 303.467 540.133 304.533C540.533 304.933 545.867 303.333 552 300.933L563.067 296.533L568 284.4C574.4 268.533 580.267 258.8 589.733 248.533C597.467 240.267 608.533 233.333 613.867 233.333C619.067 233.467 627.733 238.4 629.867 242.533C638.933 260 620 280.133 576.667 298.667C562.4 304.8 531.067 317.333 530 317.333C529.867 317.333 529.333 309.067 528.933 298.933C528.4 283.867 527.733 278.933 524.8 270.8C520.533 258.533 512.267 245.6 504.133 238.4C491.333 227.067 469.733 220.133 454 222.4L447.333 223.333L455.333 225.2C474.267 229.467 490.133 242 498.933 260.133C505.867 274.133 508.4 285.733 508.267 303.333C508 327.467 509.467 325.467 484.667 335.467C418.533 362.133 391.067 384.267 385.467 415.467C382 434 391.467 453.067 407.467 460.267C429.467 469.867 450.533 464.267 472.133 442.8C484.8 430 493.733 416.8 501.6 398.533C506.533 386.8 515.333 358.933 514.4 357.867C514 357.6 508 359.6 500.933 362.267L488.133 367.2L485.2 375.333C475.733 401.733 457.733 426.933 442.667 434.667C429.6 441.6 415.467 436.8 412.133 424.4C408 408.933 423.733 390.933 456 374.133C473.067 365.333 487.6 359.333 539.333 340C561.333 331.733 585.867 322.133 593.867 318.533C624.667 304.933 642.4 290.933 650.8 273.867C654.933 265.333 655.333 263.733 655.333 252C655.333 237.467 654 234.133 644.4 223.867C633.867 212.667 614.8 208.667 599.867 214.533Z" fill="#09090b" />
  <path d="M532.8 350.4L523.6 353.867L524.4 367.867C525.6 391.2 532.4 408.4 546.133 422C562.8 438.8 589.867 444.133 610.933 434.8L616.667 432.267L607.867 432.933C591.067 434.4 576.933 428.8 564.8 416C550.933 401.467 544.933 384 545.6 360.4C546 344.533 546.8 345.067 532.8 350.4Z" fill="#09090b" />
  <path d="M635.333 359.467C620 364.267 609.067 377.733 607.2 394C606.4 400.4 605.733 401.733 603.067 402.8C597.067 405.067 585.067 404.133 578 400.933C569.467 396.933 558.4 384.933 554.667 375.6L551.867 368.667L552.667 376C553.867 386.8 560.4 401.067 568 409.733C579.333 422.267 596.533 428.667 610.533 425.467C616.133 424.267 616.667 424.4 621.733 428.667C629.333 435.2 638.133 437.867 649.867 437.067C671.067 435.6 685.067 421.467 686.4 399.867C686.933 390.933 686.533 388.8 683.333 381.467C674.933 362.933 654.267 353.467 635.333 359.467ZM656.933 381.333C666 386.8 668.667 396.267 664.133 405.867C658.933 416.4 646 420.133 636.4 414C627.067 407.867 625.2 393.2 632.8 385.2C634.933 382.933 637.867 380.533 639.333 380C644.133 378 652.533 378.533 656.933 381.333Z" fill="#09090b" />
</svg>
