<svg width="430" height="118" viewBox="0 0 430 118" fill="none" xmlns="http://www.w3.org/2000/svg">
<g clip-path="url(#clip0_235_199)">
<path d="M126.893 44.0764C127.915 44.0764 128.79 44.9028 128.79 45.9722V82.1875C128.79 83.2083 127.866 84.0347 126.893 84.0347H121.981C121.057 84.0347 120.133 83.3056 120.133 82.2847V78.9306C117.652 82.5764 113.373 85.1042 107.147 85.1042C96.739 85.1042 90.3191 78.2014 90.3191 67.9444V45.875C90.3191 44.8542 91.2432 44.0278 92.2159 44.0278H97.1281C98.1495 44.0278 98.9763 44.8542 98.9763 45.875V66.5347C98.9763 73.1944 102.478 77.6181 109.384 77.6181C116.145 77.6181 120.133 73.0486 120.133 66.6319V45.875C120.133 44.8542 121.057 44.0278 121.981 44.0278H126.893M54.4258 24C37.5977 24 24.0283 37.0764 24.0283 54.5278C24.0283 72.0278 37.5977 85.0556 54.4258 85.0556C57.2953 85.0556 60.0675 84.6667 62.6939 83.9375L66.0011 92.4444C66.3416 93.3681 67.0225 93.9514 68.2384 93.9514H73.4911C74.7556 93.9514 75.6797 93.125 75.096 91.5208L70.8161 80.3889C79.2301 75.0903 84.8232 65.7083 84.8232 54.4792C84.8232 37.0764 71.2538 24 54.4258 24ZM67.6547 72.2708L63.8125 62.3056C63.4721 61.4792 62.7912 60.7014 61.3321 60.7014H56.3226C55.058 60.7014 54.0853 61.5278 54.669 63.1319L59.7271 76.2083C58.0735 76.6458 56.2739 76.8403 54.4258 76.8403C42.1209 76.8403 33.3664 67.1667 33.3664 54.5278C33.3664 41.8889 42.1209 32.2153 54.4258 32.2153C66.7307 32.2153 75.4851 41.8889 75.4851 54.5278C75.4851 61.9167 72.5183 68.2361 67.6547 72.2708ZM404.994 81.9931C405.431 83.0139 404.896 83.9861 403.68 83.9861H398.185C397.163 83.9861 396.336 83.5 395.996 82.4792L385.831 55.1597L375.52 82.4792C375.082 83.5486 374.353 83.9861 373.332 83.9861H368.419C367.398 83.9861 366.668 83.5486 366.231 82.4792L355.823 55.0139L345.56 82.4792C345.123 83.5 344.393 83.9861 343.372 83.9861H338.216C337.195 83.9861 336.466 83.5 336.028 82.4792L325.863 55.0139L315.358 82.4792C314.92 83.5486 314.19 83.9861 313.169 83.9861H308.257C307.235 83.9861 306.506 83.5486 306.068 82.4792L295.806 55.0139L285.544 82.4792C285.203 83.5 284.376 83.9861 283.355 83.9861H278.005C276.741 83.9861 276.254 82.9653 276.692 81.9931L290.602 45.6319C291.04 44.5625 291.769 44.0278 292.79 44.0278H298.773C299.794 44.0278 300.524 44.5139 300.961 45.6319L310.98 72.1736L320.902 45.6319C321.34 44.5625 322.069 44.0278 323.091 44.0278H328.976C329.997 44.0278 330.726 44.5139 331.164 45.6319L340.989 72.1736L350.813 45.6319C351.251 44.5625 351.98 44.0278 353.002 44.0278H358.935C359.957 44.0278 360.686 44.5139 361.124 45.6319L371.094 72.1736L380.821 45.6319C381.259 44.5625 381.989 44.0278 383.01 44.0278H388.992C390.014 44.0278 390.743 44.5139 391.181 45.6319L404.994 81.9931ZM174.508 44.0764H169.596C168.574 44.0764 167.699 44.9028 167.699 45.9722V49.2778C165.218 45.5347 160.355 42.8611 154.616 42.8611C143.77 42.8611 134.481 51.4167 134.481 63.9097C134.481 76.5486 143.819 85.0556 154.567 85.0556C160.403 85.0556 165.121 82.3819 167.747 78.6389V82.1389C167.747 83.1597 168.672 83.9861 169.644 83.9861H174.557C175.578 83.9861 176.405 83.1597 176.405 82.1389V45.9722C176.356 44.9028 175.529 44.0764 174.508 44.0764ZM155.54 77.0833C148.39 77.0833 143.284 71.25 143.284 64.0069C143.284 56.6667 148.342 51.0278 155.54 51.0278C162.641 51.0278 167.796 56.6667 167.796 64.0069C167.747 71.2986 162.592 77.0833 155.54 77.0833ZM233.114 78.3472C234.184 79.6597 233.26 80.6806 232.676 81.1181C229.272 83.6944 224.749 85.1042 219.837 85.1042C207.434 85.1042 199.166 76.0139 199.166 64.0556C199.166 52.0972 207.434 42.9097 219.837 42.9097C224.749 42.9097 229.223 44.3194 232.676 46.8958C233.26 47.3333 234.087 48.2083 233.114 49.6667L230.78 52.9236C229.856 54.1875 228.786 53.8472 227.861 53.2639C225.673 51.9514 223.095 50.8333 220.128 50.8333C212.882 50.8333 208.067 56.6667 208.067 64.0556C208.067 71.4444 212.882 77.2292 220.128 77.2292C223.144 77.2292 225.527 76.0625 227.716 74.7986C228.64 74.3125 229.612 73.875 230.634 75.2361L233.114 78.3472ZM256.265 42.9583C244.592 42.9583 235.303 52.0972 235.303 64.0069C235.303 76.0139 244.641 85.0556 256.265 85.0556C267.938 85.0556 277.227 75.9653 277.227 64.0069C277.276 52.1458 267.938 42.9583 256.265 42.9583ZM256.265 77.0347C249.115 77.0347 244.009 71.2986 244.009 64.0556C244.009 56.7153 249.067 51.0764 256.265 51.0764C263.414 51.0764 268.521 56.7153 268.521 64.0556C268.521 71.2986 263.463 77.0347 256.265 77.0347ZM191.725 25.0694C192.795 25.0694 193.573 25.9931 193.573 26.9653V82.0903C193.573 83.1111 192.844 83.9861 191.725 83.9861H186.813C185.791 83.9861 184.916 83.0625 184.916 82.0903V27.0139C184.916 25.9931 185.84 25.1181 186.813 25.1181H191.725" fill="#333333"/>
</g>
<defs>
<clipPath id="clip0_235_199">
<rect width="381.111" height="70" fill="white" transform="translate(24.0283 24)"/>
</clipPath>
</defs>
</svg>
